<?xml version="1.0" encoding="utf-8"?>
<!-- Generator: Adobe Illustrator 22.1.0, SVG Export Plug-In . SVG Version: 6.00 Build 0)  -->
<svg version="1.1" id="Layer_1" xmlns="http://www.w3.org/2000/svg" xmlns:xlink="http://www.w3.org/1999/xlink" x="0px" y="0px"
	 viewBox="0 0 300 310" style="enable-background:new 0 0 300 310;" xml:space="preserve">
<style type="text/css">
	.st0{fill:#333333;}
	.st1{fill:#0040BF;}
	.st2{fill:#00CCFF;}
</style>
<g id="Logo_Gruppe">
	<g id="Schriftzug">
		<path class="st0" d="M28.9,259.3h32.7v7.3H47.1v5.4h13.1v7H47.1v6.8H62v7.8H37.2v-6.1H27l-2.3,6.1H14.1L28.9,259.3z M34.8,266.3
			l-4.9,13.4h7.3v-13.4H34.8z"/>
		<path class="st0" d="M97.7,288.6c1.3,0.9,2.2,1.5,2.6,1.7c0.6,0.3,1.4,0.7,2.5,1.2l-2.9,5.9c-1.5-0.7-2.9-1.6-4.4-2.6
			c-1.4-1-2.5-1.7-3-2.2c-2.3,1-5.3,1.5-8.8,1.5c-5.2,0-9.3-1.4-12.3-4.1c-3.6-3.2-5.3-7.7-5.3-13.5c0-5.6,1.6-10,4.7-13.1
			c3.1-3.1,7.5-4.7,13-4.7c5.7,0,10.1,1.5,13.2,4.6c3.1,3.1,4.6,7.4,4.6,13.1C101.4,281.5,100.2,285.6,97.7,288.6z M89.5,283.2
			c0.8-1.5,1.3-3.8,1.3-6.8c0-3.5-0.6-5.9-1.9-7.4c-1.3-1.5-3.1-2.2-5.3-2.2c-2.1,0-3.8,0.8-5.1,2.3c-1.3,1.5-2,3.9-2,7.1
			c0,3.7,0.6,6.4,1.9,7.9c1.3,1.5,3,2.3,5.3,2.3c0.7,0,1.4-0.1,2-0.2c-0.9-0.9-2.3-1.7-4.2-2.4l1.7-3.8c0.9,0.2,1.7,0.4,2.2,0.6
			c0.5,0.2,1.5,0.9,3.1,2C88.7,282.6,89.1,282.9,89.5,283.2z"/>
		<path class="st0" d="M129.4,259.3H140v20.4c0,2-0.3,3.9-0.9,5.7c-0.6,1.8-1.6,3.4-3,4.7c-1.3,1.3-2.8,2.3-4.2,2.8
			c-2.1,0.8-4.5,1.1-7.4,1.1c-1.7,0-3.5-0.1-5.5-0.3c-2-0.2-3.6-0.7-4.9-1.4c-1.3-0.7-2.5-1.7-3.6-3c-1.1-1.3-1.9-2.6-2.3-3.9
			c-0.7-2.2-1-4.1-1-5.8v-20.4h10.6v20.9c0,1.9,0.5,3.3,1.6,4.4c1,1.1,2.5,1.6,4.3,1.6c1.8,0,3.3-0.5,4.3-1.6c1-1,1.6-2.5,1.6-4.4
			V259.3z"/>
		<path class="st0" d="M166.4,287.9h-12l-1.7,5.7h-10.8l12.9-34.3h11.5l12.9,34.3h-11.1L166.4,287.9z M164.2,280.5l-3.8-12.3
			l-3.7,12.3H164.2z"/>
		<path class="st0" d="M176.9,259.3H209v8.5h-10.8v25.8h-10.6v-25.8h-10.8V259.3z"/>
		<path class="st0" d="M210.9,276.5c0-5.6,1.6-9.9,4.7-13.1c3.1-3.1,7.5-4.7,13-4.7c5.7,0,10.1,1.5,13.2,4.6
			c3.1,3.1,4.6,7.3,4.6,12.9c0,4-0.7,7.3-2,9.9c-1.3,2.6-3.3,4.6-5.8,6c-2.5,1.4-5.7,2.1-9.5,2.1c-3.9,0-7.1-0.6-9.6-1.8
			c-2.5-1.2-4.6-3.2-6.2-5.8C211.7,283.8,210.9,280.5,210.9,276.5z M221.5,276.5c0,3.5,0.6,5.9,1.9,7.5c1.3,1.5,3,2.3,5.2,2.3
			c2.3,0,4-0.7,5.3-2.2c1.2-1.5,1.9-4.1,1.9-8c0-3.2-0.7-5.6-2-7.1c-1.3-1.5-3.1-2.2-5.3-2.2c-2.1,0-3.8,0.8-5.1,2.3
			C222.1,270.5,221.5,273,221.5,276.5z"/>
		<path class="st0" d="M252.2,293.6v-34.3h17.6c3.3,0,5.8,0.3,7.5,0.8c1.7,0.6,3.1,1.6,4.2,3.1c1.1,1.5,1.6,3.4,1.6,5.6
			c0,1.9-0.4,3.5-1.2,4.9c-0.8,1.4-1.9,2.5-3.3,3.4c-0.9,0.5-2.1,1-3.7,1.4c1.3,0.4,2.2,0.8,2.8,1.3c0.4,0.3,1,0.9,1.7,1.8
			c0.7,0.9,1.2,1.6,1.5,2.1l5.1,9.9h-12l-5.7-10.5c-0.7-1.4-1.4-2.2-1.9-2.6c-0.8-0.5-1.6-0.8-2.6-0.8h-0.9v13.9H252.2z
			 M262.9,273.2h4.5c0.5,0,1.4-0.2,2.8-0.5c0.7-0.1,1.3-0.5,1.7-1.1c0.4-0.6,0.7-1.2,0.7-2c0-1.1-0.3-2-1.1-2.5
			c-0.7-0.6-2-0.9-3.9-0.9h-4.7V273.2z"/>
	</g>
	<g id="Zeichen">
		<polygon class="st1" points="195.5,251.1 285.9,251.1 240.7,172.7 		"/>
		<polygon class="st1" points="105.1,183.1 150.4,104.8 180.8,157.6 219.6,132.9 152,12.6 14.1,251.1 34.4,251.1 140.9,183.1 		"/>
		<polygon class="st2" points="217.1,143.9 184.9,164.5 195.6,183.1 155.8,183.1 68.1,239.1 193.1,239.1 232.6,170.7 		"/>
	</g>
</g>
</svg>
