<?xml version="1.0" encoding="UTF-8" standalone="no"?>
<svg width="40px" height="40px" viewBox="0 0 40 40" id="svg-decred-logo" version="1.1" xmlns="http://www.w3.org/2000/svg" xmlns:xlink="http://www.w3.org/1999/xlink" >
	<path style="clip-path:url(#SVGID_2_);fill:#FFFFFF;" d="M17.6,23.7h9.9c3.7,0,6.7-3,6.7-6.7c0-3.7-3-6.7-6.7-6.7h-3.2l-6.7-5.9
			h9.9c6.9,0,12.5,5.6,12.5,12.5c0,5.2-3.2,9.7-7.8,11.6l7.8,6.8h-8.9L17.6,23.7z"/>
		<path style="clip-path:url(#SVGID_2_);fill:#FFFFFF;" d="M22.4,16.3h-9.9c-3.7,0-6.7,3-6.7,6.7c0,3.7,3,6.7,6.7,6.7h3.2l6.7,5.9
			h-9.9C5.6,35.4,0,29.8,0,22.9c0-5.3,3.2-9.7,7.8-11.6L0,4.6h8.9L22.4,16.3z"/>
</svg>