<?xml version="1.0" encoding="UTF-8" standalone="no"?>
<svg width="26px" height="26px" viewBox="0 0 26 26" id="svg-search" version="1.1" xmlns="http://www.w3.org/2000/svg" xmlns:xlink="http://www.w3.org/1999/xlink" >
	<path id="XMLID_549_" style="fill:#2970FF;" d="M26,24.5l-6.9-6.9c1.5-1.9,2.4-4.2,2.4-6.8C21.5,4.8,16.7,0,10.7,0
	C4.8,0,0,4.8,0,10.7c0,5.9,4.8,10.7,10.7,10.7c2.6,0,4.9-0.9,6.8-2.4l6.9,6.9L26,24.5z M2.4,10.7c0-4.6,3.7-8.3,8.3-8.3
	c4.6,0,8.3,3.7,8.3,8.3c0,4.6-3.7,8.3-8.3,8.3C6.1,19.1,2.4,15.3,2.4,10.7z"/>
</svg>