<?xml version="1.0" encoding="utf-8" standalone="no"?>
<!DOCTYPE svg PUBLIC "-//W3C//DTD SVG 1.1//EN" "http://www.w3.org/Graphics/SVG/1.1/DTD/svg11.dtd">
<svg version="1.1" xmlns="http://www.w3.org/2000/svg" xmlns:xlink="http://www.w3.org/1999/xlink" xml:space="preserve">

<symbol viewBox="0 0 40 40" id="svg-decred-logo">
	<path style="clip-path:url(#SVGID_2_);fill:#FFFFFF;" d="M17.6,23.7h9.9c3.7,0,6.7-3,6.7-6.7c0-3.7-3-6.7-6.7-6.7h-3.2l-6.7-5.9
			h9.9c6.9,0,12.5,5.6,12.5,12.5c0,5.2-3.2,9.7-7.8,11.6l7.8,6.8h-8.9L17.6,23.7z"/>
		<path style="clip-path:url(#SVGID_2_);fill:#FFFFFF;" d="M22.4,16.3h-9.9c-3.7,0-6.7,3-6.7,6.7c0,3.7,3,6.7,6.7,6.7h3.2l6.7,5.9
			h-9.9C5.6,35.4,0,29.8,0,22.9c0-5.3,3.2-9.7,7.8-11.6L0,4.6h8.9L22.4,16.3z"/>
</symbol>
<symbol viewBox="0 0 26 26" id="svg-search">
	<path id="XMLID_549_" style="fill:#2970FF;" d="M26,24.5l-6.9-6.9c1.5-1.9,2.4-4.2,2.4-6.8C21.5,4.8,16.7,0,10.7,0
	C4.8,0,0,4.8,0,10.7c0,5.9,4.8,10.7,10.7,10.7c2.6,0,4.9-0.9,6.8-2.4l6.9,6.9L26,24.5z M2.4,10.7c0-4.6,3.7-8.3,8.3-8.3
	c4.6,0,8.3,3.7,8.3,8.3c0,4.6-3.7,8.3-8.3,8.3C6.1,19.1,2.4,15.3,2.4,10.7z"/>
</symbol>
<symbol viewBox="0 0 16 16" id="dcr-down">
	<polygon style="fill:#FFFFFF;" points="3,5.5 8,10.5 13,5.5 "/>
</symbol>
<symbol viewBox="0 0 16 16" id="connected">
	<polygon style="fill:#FFFFFF;" points="13,5.4 12.4,4.8 7.1,10 3.6,6.5 3,7.1 7.1,11.2 7.1,11.2 7.1,11.2 "/>
</symbol>
<symbol viewBox="0 0 16 16" id="calender">
	<path style="fill:#2970FF;" d="M11.7,4.3V3h3.2v11.9H1.1V3h3.2v1.4h1.1V3h5.2v1.4H11.7z M10.6,0v1.9H5.4V0H4.3v1.9H0V16h16V1.9
		h-4.3V0H10.6z"/>
	<rect x="2.8" y="6.9" style="fill:#2970FF;" width="2.5" height="1.1"/>
	<rect x="2.8" y="12.1" style="fill:#2970FF;" width="2.5" height="1.1"/>
	<rect x="2.8" y="9.5" style="fill:#2970FF;" width="2.5" height="1.1"/>
	<rect x="6.8" y="6.9" style="fill:#2970FF;" width="2.5" height="1.1"/>
	<rect x="6.8" y="12.1" style="fill:#2970FF;" width="2.5" height="1.1"/>
	<rect x="6.8" y="9.5" style="fill:#2970FF;" width="2.5" height="1.1"/>
	<rect x="10.7" y="6.9" style="fill:#2970FF;" width="2.5" height="1.1"/>
	<rect x="10.7" y="12.1" style="fill:#2970FF;" width="2.5" height="1.1"/>
	<rect x="10.7" y="9.5" style="fill:#2970FF;" width="2.5" height="1.1"/>
</symbol>
<symbol viewBox="0 0 16 16" id="previous">
	<polygon style="fill:#2970FF;" points="11.7,3.4 11,2.7 10.3,2 4.3,8 4.3,8 4.3,8 10.3,14 11,13.3 11.7,12.6 7.1,8 "/>
</symbol>
<symbol viewBox="0 0 16 16" id="next">
	<polygon style="fill:#2970FF;" points="4.3,12.6 5,13.3 5.7,14 11.7,8 11.7,8 11.7,8 5.7,2 5,2.7 4.3,3.4 8.9,8 "/>
</symbol>
<symbol viewBox="0 0 16 16" id="plus">
	<polygon style="fill:#132F4B;" points="14,7.1 9,7.1 9,2 7,2 7,7.1 2,7.1 2,8.1 2,9.1 7,9.1 7,14 8,14 9,14 9,9.1 14,9.1 "/>
</symbol>
<symbol viewBox="0 0 32 32" id="arrow">
	<polygon style="fill:#132F4B;" points="25.1,15.9 25.1,15.9 10.3,1 8.5,2.8 6.7,4.5 18.2,16 6.7,27.5 8.5,29.2 10.3,31 25.3,16 "/>
</symbol>
<symbol viewBox="0 0 16 16" id="copy">
	<rect id="XMLID_81_" x="5" y="5" style="fill:#8997A5;" width="3" height="1"/>
	<rect id="XMLID_80_" x="5" y="7" style="fill:#8997A5;" width="3" height="1"/>
	<path id="XMLID_75_" style="fill:#8997A5;" d="M10,9V4V3H3v1v6h1h6V9z M4,9V4h5v5H4z"/>
	<polygon id="XMLID_72_" style="fill:#8997A5;" points="12,6 11,6 11,7 12,7 12,12 7,12 7,11 6,11 6,12 6,13 12,13 13,13 13,6 	"/>
</symbol>
<symbol viewBox="0 0 40 40" id="angular">
	<path style="fill:#5A6D81;" d="M19.9,6.7L19.9,6.7l-9.3,20.7l3.5-0.1l1.9-4.7h8.3l2,4.7l3.3,0.1L19.9,6.7z M19.9,13.4l3.1,6.6h-5.9
		L19.9,13.4z"/>
	<path style="fill:#5A6D81;" d="M19.9,34.3L19.9,34.3L19.9,34.3z M8.6,28.1l-2-17.6l13.3-4.8l13.7,4.7L31.4,28l-11.5,6.3L8.6,28.1z
		 M20,4L4.9,9.3L7.3,29L20,36l12.8-7.1l2.4-19.7L20,4z"/>
</symbol>
<symbol viewBox="0 0 55 40" id="nodejs">
	
<g>
	<g>
		<defs>
			<rect id="SVGID_1_" x="1.4" y="7" width="52.2" height="32"/>
		</defs>
		<clipPath id="SVGID_2_">
			<use xlink:href="#SVGID_1_"  style="overflow:visible;"/>
		</clipPath>
		<g style="clip-path:url(#SVGID_2_);">
			<defs>
				<rect id="SVGID_3_" x="1.4" y="7" width="52.2" height="32"/>
			</defs>
			<clipPath id="SVGID_4_">
				<use xlink:href="#SVGID_3_"  style="overflow:visible;"/>
			</clipPath>
			<path style="clip-path:url(#SVGID_4_);fill:#5A6D81;" d="M27.2,39c-0.2,0-0.3,0-0.5-0.1l-1.6-0.9c-0.2-0.1-0.1-0.2,0-0.2
				c0.3-0.1,0.4-0.1,0.7-0.3c0,0,0.1,0,0.1,0l1.2,0.7c0,0,0.1,0,0.1,0l4.7-2.7c0,0,0.1-0.1,0.1-0.1v-5.4c0-0.1,0-0.1-0.1-0.1
				L27.3,27c0,0-0.1,0-0.1,0l-4.7,2.7c0,0-0.1,0.1-0.1,0.1v5.4c0,0.1,0,0.1,0.1,0.1l1.3,0.7c0.7,0.4,1.1-0.1,1.1-0.5v-5.4
				c0-0.1,0.1-0.1,0.1-0.1h0.6c0.1,0,0.1,0.1,0.1,0.1v5.4c0,0.9-0.5,1.5-1.4,1.5c-0.3,0-0.5,0-1.1-0.3L22,36.1
				c-0.3-0.2-0.5-0.5-0.5-0.9v-5.4c0-0.4,0.2-0.7,0.5-0.9l4.7-2.7c0.3-0.2,0.7-0.2,1,0l4.7,2.7c0.3,0.2,0.5,0.5,0.5,0.9v5.4
				c0,0.4-0.2,0.7-0.5,0.9l-4.7,2.7C27.5,39,27.4,39,27.2,39"/>
			<path style="clip-path:url(#SVGID_4_);fill:#5A6D81;" d="M28.7,35.2c-2.1,0-2.5-0.9-2.5-1.7c0-0.1,0.1-0.1,0.1-0.1h0.6
				c0.1,0,0.1,0,0.1,0.1c0.1,0.6,0.4,0.9,1.6,0.9c1,0,1.4-0.2,1.4-0.8c0-0.3-0.1-0.5-1.7-0.7c-1.3-0.1-2.1-0.4-2.1-1.4
				c0-1,0.8-1.5,2.1-1.5c1.5,0,2.3,0.5,2.4,1.7c0,0,0,0.1,0,0.1c0,0-0.1,0-0.1,0h-0.6c-0.1,0-0.1,0-0.1-0.1
				c-0.1-0.7-0.5-0.9-1.5-0.9c-1.1,0-1.2,0.4-1.2,0.7c0,0.3,0.1,0.4,1.6,0.6c1.4,0.2,2.1,0.5,2.1,1.5C31,34.7,30.2,35.2,28.7,35.2"
				/>
			<path style="clip-path:url(#SVGID_4_);fill:#5A6D81;" d="M35.5,29.5c0,0.5-0.4,0.9-0.9,0.9c-0.5,0-0.9-0.4-0.9-0.9
				c0-0.5,0.4-0.9,0.9-0.9C35,28.6,35.5,29,35.5,29.5 M33.8,29.5c0,0.4,0.3,0.8,0.8,0.8c0.4,0,0.8-0.3,0.8-0.8
				c0-0.4-0.3-0.8-0.8-0.8C34.1,28.8,33.8,29.1,33.8,29.5 M34.2,29h0.4c0.1,0,0.4,0,0.4,0.3c0,0.2-0.1,0.2-0.2,0.2
				c0.1,0,0.1,0.1,0.2,0.2c0,0.1,0,0.2,0.1,0.3h-0.2c0,0,0-0.3,0-0.3c0-0.1,0-0.1-0.1-0.1h-0.2V30h-0.2V29z M34.4,29.5h0.2
				c0.1,0,0.2-0.1,0.2-0.1c0-0.1-0.1-0.1-0.1-0.1h-0.2V29.5z"/>
			<path style="clip-path:url(#SVGID_4_);fill-rule:evenodd;clip-rule:evenodd;fill:#5A6D81;" d="M12.6,17.7c0-0.2-0.1-0.4-0.3-0.5
				l-5-2.9c-0.1,0-0.2-0.1-0.3-0.1H7c-0.1,0-0.2,0-0.3,0.1l-5,2.9c-0.2,0.1-0.3,0.3-0.3,0.5l0,7.8c0,0.1,0.1,0.2,0.2,0.3
				c0.1,0.1,0.2,0.1,0.3,0l3-1.7c0.2-0.1,0.3-0.3,0.3-0.5v-3.6c0-0.2,0.1-0.4,0.3-0.5l1.3-0.7c0.1-0.1,0.2-0.1,0.3-0.1
				c0.1,0,0.2,0,0.3,0.1l1.3,0.7c0.2,0.1,0.3,0.3,0.3,0.5v3.6c0,0.2,0.1,0.4,0.3,0.5l3,1.7c0.1,0.1,0.2,0.1,0.3,0
				c0.1-0.1,0.2-0.2,0.2-0.3L12.6,17.7z"/>
			<path style="clip-path:url(#SVGID_4_);fill-rule:evenodd;clip-rule:evenodd;fill:#5A6D81;" d="M36.7,7c-0.1-0.1-0.2,0-0.3,0
				c-0.1,0.1-0.1,0.2-0.1,0.3V15c0,0.1,0,0.1-0.1,0.2c-0.1,0-0.1,0-0.2,0l-1.3-0.7c-0.2-0.1-0.4-0.1-0.6,0l-5,2.9
				c-0.2,0.1-0.3,0.3-0.3,0.5v5.8c0,0.2,0.1,0.4,0.3,0.5l5,2.9c0.2,0.1,0.4,0.1,0.6,0l5-2.9c0.2-0.1,0.3-0.3,0.3-0.5V9.2
				c0-0.2-0.1-0.4-0.3-0.5L36.7,7z M36.2,21.7c0,0.1,0,0.1-0.1,0.1l-1.7,1c0,0-0.1,0-0.2,0l-1.7-1c0,0-0.1-0.1-0.1-0.1v-2
				c0-0.1,0-0.1,0.1-0.1l1.7-1c0,0,0.1,0,0.2,0l1.7,1c0,0,0.1,0.1,0.1,0.1V21.7z"/>
			<path style="clip-path:url(#SVGID_4_);fill-rule:evenodd;clip-rule:evenodd;fill:#5A6D81;" d="M53.3,19.7
				c0.2-0.1,0.3-0.3,0.3-0.5v-1.4c0-0.2-0.1-0.4-0.3-0.5l-5-2.9c-0.2-0.1-0.4-0.1-0.6,0l-5,2.9c-0.2,0.1-0.3,0.3-0.3,0.5v5.8
				c0,0.2,0.1,0.4,0.3,0.5l5,2.8c0.2,0.1,0.4,0.1,0.6,0l3-1.7c0.1-0.1,0.2-0.2,0.2-0.3c0-0.1-0.1-0.2-0.2-0.3l-5-2.9
				c-0.1-0.1-0.2-0.2-0.2-0.3v-1.8c0-0.1,0.1-0.2,0.2-0.3l1.6-0.9c0.1-0.1,0.2-0.1,0.3,0l1.6,0.9c0.1,0.1,0.2,0.2,0.2,0.3v1.4
				c0,0.1,0.1,0.2,0.2,0.3c0.1,0.1,0.2,0.1,0.3,0L53.3,19.7z"/>
			<path style="clip-path:url(#SVGID_4_);fill-rule:evenodd;clip-rule:evenodd;fill:#5A6D81;" d="M48,19.4c0,0,0.1,0,0.1,0l1,0.6
				c0,0,0.1,0.1,0.1,0.1v1.1c0,0,0,0.1-0.1,0.1l-1,0.6c0,0-0.1,0-0.1,0l-1-0.6c0,0-0.1-0.1-0.1-0.1v-1.1c0,0,0-0.1,0.1-0.1L48,19.4z
				"/>
			<path style="clip-path:url(#SVGID_4_);fill-rule:evenodd;clip-rule:evenodd;fill:#5A6D81;" d="M20.4,14.4c0.2-0.1,0.4-0.1,0.6,0
				l5,2.9c0.2,0.1,0.3,0.3,0.3,0.5v5.7c0,0.2-0.1,0.4-0.3,0.5l-5,2.9c-0.2,0.1-0.4,0.1-0.6,0l-5-2.9c-0.2-0.1-0.3-0.3-0.3-0.5v-5.7
				c0-0.2,0.1-0.4,0.3-0.5L20.4,14.4z"/>
			<path style="clip-path:url(#SVGID_4_);fill-rule:evenodd;clip-rule:evenodd;fill:#5A6D81;" d="M21,14.4c-0.2-0.1-0.4-0.1-0.6,0
				l-5,2.9c-0.2,0.1-0.3,0.3-0.3,0.5v5.7c0,0.2,0.1,0.4,0.3,0.5l5,2.9c0.2,0.1,0.4,0.1,0.6,0l5-2.9c0.2-0.1,0.3-0.3,0.3-0.5v-5.7
				c0-0.2-0.1-0.4-0.3-0.5L21,14.4z"/>
		</g>
		<g style="clip-path:url(#SVGID_2_);">
			<defs>
				<path id="SVGID_5_" d="M20.4,14.4l-5,2.9c-0.2,0.1-0.3,0.3-0.3,0.5v5.7c0,0.2,0.1,0.4,0.3,0.5l5,2.9c0.2,0.1,0.4,0.1,0.6,0
					l5-2.9c0.2-0.1,0.3-0.3,0.3-0.5v-5.7c0-0.2-0.1-0.4-0.3-0.5l-5-2.9c-0.1-0.1-0.2-0.1-0.3-0.1C20.6,14.3,20.5,14.3,20.4,14.4"/>
			</defs>
			<clipPath id="SVGID_6_">
				<use xlink:href="#SVGID_5_"  style="overflow:visible;"/>
			</clipPath>
			<path style="clip-path:url(#SVGID_6_);fill:#5A6D81;" d="M20.4,14.4l-4.7,2.9c-0.2,0.1-0.1,0.3-0.1,0.5v5.7
				c0,0.1-0.2,0.3-0.1,0.4l5.5-9.6C20.8,14.3,20.5,14.3,20.4,14.4"/>
			<path style="clip-path:url(#SVGID_6_);fill:#5A6D81;" d="M20.8,26.9c0,0,0.1,0,0.1-0.1l5.1-2.9c0.2-0.1,0.5-0.3,0.5-0.5v-5.7
				c0-0.1-0.2-0.3-0.3-0.4L20.8,26.9z"/>
			<g style="opacity:0.66;clip-path:url(#SVGID_6_);">
				<g>
					<defs>
						<rect id="SVGID_7_" x="15.2" y="14.3" width="10.8" height="12.6"/>
					</defs>
					<clipPath id="SVGID_8_">
						<use xlink:href="#SVGID_7_"  style="overflow:visible;"/>
					</clipPath>
					<path style="clip-path:url(#SVGID_8_);fill:#5A6D81;" d="M25.9,17.3L21,14.4c0,0-0.1,0-0.2-0.1l-5.6,9.6c0,0.1,0.1,0.1,0.2,0.1
						l5,2.9c0.1,0.1,0.3,0.1,0.5,0l5.2-9.6C26,17.3,26,17.3,25.9,17.3"/>
				</g>
			</g>
			<path style="clip-path:url(#SVGID_6_);fill:#5A6D81;" d="M15.4,17.2l0.2,0c-0.2,0.1-0.1,0.3-0.1,0.5v5.7c0,0.2-0.1,0.4,0.1,0.5
				l4.9,2.9c0.1,0.1,0.2,0.1,0.4,0.1L15.4,17.2z"/>
			<path style="clip-path:url(#SVGID_6_);fill:#5A6D81;" d="M26.5,17.8c0-0.2-0.3-0.4-0.5-0.5l-5-2.9c0,0,0,0,0-0.1l5.5,9.2V17.8z"
				/>
			<path style="clip-path:url(#SVGID_6_);fill:#5A6D81;" d="M20.9,26.9l5.1-2.9c0.2-0.1,0.5-0.3,0.5-0.5v0L21,14.3
				c-0.2,0-0.4,0-0.6,0.1l-5,2.8l5.3,9.7C20.9,26.9,20.9,26.9,20.9,26.9"/>
		</g>
	</g>
</g>
</symbol>
<symbol viewBox="0 0 84.2 40" id="bitcore">
		<defs>
		<rect id="SVGID_9_" x="1.9" y="10" width="80.2" height="20"/>
	</defs>
	<clipPath id="SVGID_2_">
		<use xlink:href="#SVGID_9_"  style="overflow:visible;"/>
	</clipPath>
	<path style="clip-path:url(#SVGID_2_);fill:#5A6D81;" d="M35.3,17.3c0.5,0,1,0.1,1.4,0.3c0.4,0.2,0.7,0.4,1,0.7
		c0.3,0.3,0.4,0.7,0.6,1.1c0.1,0.4,0.2,0.9,0.2,1.4c0,0.7-0.1,1.5-0.4,2.1c-0.3,0.7-0.7,1.2-1.1,1.7c-0.5,0.5-1.1,0.9-1.7,1.2
		c-0.7,0.3-1.4,0.4-2.1,0.4c-0.1,0-0.3,0-0.5,0s-0.5,0-0.8-0.1c-0.3,0-0.7-0.1-1-0.2c-0.4-0.1-0.7-0.2-1-0.4l2.8-11.8l2.5-0.4
		l-1,4.2c0.2-0.1,0.4-0.2,0.7-0.2C34.8,17.4,35,17.3,35.3,17.3 M33.2,24.3c0.4,0,0.7-0.1,1.1-0.3c0.3-0.2,0.6-0.4,0.9-0.7
		c0.2-0.3,0.4-0.7,0.6-1.1c0.1-0.4,0.2-0.8,0.2-1.2c0-0.5-0.1-0.9-0.3-1.2c-0.2-0.3-0.5-0.4-1-0.4c-0.2,0-0.4,0-0.6,0.1
		c-0.2,0.1-0.5,0.2-0.7,0.3l-1.1,4.5c0.1,0,0.1,0,0.2,0c0,0,0.1,0,0.2,0c0.1,0,0.1,0,0.2,0H33.2z M41.4,26.1H39l2.1-8.6h2.4
		L41.4,26.1z M42.6,16.5c-0.3,0-0.6-0.1-0.9-0.3c-0.3-0.2-0.4-0.5-0.4-0.9c0-0.2,0-0.4,0.1-0.6s0.2-0.4,0.4-0.5
		c0.2-0.1,0.3-0.3,0.5-0.3c0.2-0.1,0.4-0.1,0.6-0.1c0.3,0,0.6,0.1,0.9,0.3c0.3,0.2,0.4,0.5,0.4,0.9c0,0.2,0,0.4-0.1,0.6
		c-0.1,0.2-0.2,0.4-0.4,0.5c-0.2,0.1-0.3,0.3-0.5,0.3C43.1,16.4,42.8,16.5,42.6,16.5 M46,15.4l2.5-0.4l-0.6,2.5h2.7l-0.5,2h-2.7
		l-0.7,3c-0.1,0.2-0.1,0.5-0.1,0.7s0,0.4,0.1,0.6c0.1,0.2,0.2,0.3,0.4,0.4c0.2,0.1,0.4,0.1,0.7,0.1c0.3,0,0.5,0,0.8-0.1
		c0.2-0.1,0.5-0.1,0.7-0.2l0.2,1.9c-0.3,0.1-0.7,0.2-1.1,0.3c-0.4,0.1-0.8,0.1-1.4,0.1c-0.8,0-1.3-0.1-1.8-0.3
		c-0.4-0.2-0.7-0.5-0.9-0.9c-0.2-0.4-0.3-0.8-0.2-1.3c0-0.5,0.1-1,0.2-1.6L46,15.4z M50.7,22.7c0-0.7,0.1-1.4,0.4-2.1
		c0.2-0.7,0.6-1.2,1-1.7c0.4-0.5,1-0.9,1.6-1.2c0.6-0.3,1.4-0.4,2.1-0.4c0.5,0,0.9,0,1.3,0.1c0.4,0.1,0.7,0.2,1.1,0.4l-0.8,1.9
		c-0.2-0.1-0.4-0.2-0.7-0.2c-0.2-0.1-0.5-0.1-0.9-0.1c-0.8,0-1.5,0.3-1.9,0.8c-0.5,0.5-0.7,1.3-0.7,2.2c0,0.6,0.1,1,0.4,1.3
		c0.2,0.3,0.7,0.5,1.3,0.5c0.3,0,0.6,0,0.9-0.1c0.3-0.1,0.6-0.1,0.8-0.2l0.2,1.9c-0.3,0.1-0.6,0.2-1,0.3c-0.4,0.1-0.8,0.1-1.3,0.1
		c-0.7,0-1.3-0.1-1.7-0.3c-0.5-0.2-0.9-0.5-1.2-0.8c-0.3-0.3-0.5-0.7-0.7-1.2C50.8,23.6,50.7,23.2,50.7,22.7 M61.6,26.3
		c-0.6,0-1.1-0.1-1.5-0.3c-0.4-0.2-0.8-0.4-1.1-0.7c-0.3-0.3-0.5-0.7-0.6-1.1c-0.1-0.4-0.2-0.9-0.2-1.4c0-0.7,0.1-1.3,0.3-2
		s0.5-1.2,0.9-1.8c0.4-0.5,0.9-0.9,1.5-1.3c0.6-0.3,1.3-0.5,2.1-0.5c0.6,0,1.1,0.1,1.5,0.3s0.8,0.4,1.1,0.7c0.3,0.3,0.5,0.7,0.6,1.1
		c0.1,0.4,0.2,0.9,0.2,1.4c0,0.7-0.1,1.3-0.3,2c-0.2,0.7-0.5,1.2-0.9,1.8c-0.4,0.5-0.9,0.9-1.5,1.3S62.4,26.3,61.6,26.3 M62.8,19.3
		c-0.4,0-0.7,0.1-1,0.3c-0.3,0.2-0.5,0.5-0.7,0.8c-0.2,0.3-0.3,0.7-0.4,1s-0.1,0.7-0.1,1.1c0,0.6,0.1,1,0.3,1.3
		c0.2,0.3,0.5,0.4,1,0.4c0.4,0,0.7-0.1,1-0.3c0.3-0.2,0.5-0.5,0.7-0.8c0.2-0.3,0.3-0.7,0.4-1s0.1-0.7,0.1-1.1c0-0.6-0.1-1-0.3-1.3
		C63.6,19.5,63.3,19.3,62.8,19.3 M73.7,19.6c-0.2-0.1-0.4-0.1-0.6-0.2s-0.5-0.1-0.9-0.1c-0.2,0-0.3,0-0.5,0c-0.2,0-0.3,0.1-0.5,0.1
		l-1.6,6.6h-2.4l2-8.1c0.5-0.2,1-0.3,1.6-0.4c0.6-0.1,1.2-0.2,2-0.2c0.3,0,0.6,0,0.9,0.1s0.6,0.1,0.9,0.2L73.7,19.6z M74.3,22.7
		c0-0.7,0.1-1.4,0.4-2c0.2-0.7,0.6-1.2,1-1.7c0.4-0.5,1-0.9,1.6-1.2c0.6-0.3,1.3-0.5,2.1-0.5c0.4,0,0.7,0.1,1.1,0.2
		c0.3,0.1,0.6,0.3,0.9,0.5c0.2,0.2,0.4,0.5,0.6,0.8s0.2,0.6,0.2,1c0,0.6-0.1,1.1-0.4,1.5c-0.3,0.4-0.7,0.8-1.1,1s-1.1,0.5-1.7,0.6
		C78.2,23,77.5,23,76.7,23c0.1,0.5,0.2,0.8,0.5,1s0.7,0.3,1.2,0.3c0.4,0,0.7,0,1.1-0.1s0.7-0.2,1-0.3l0.2,1.9
		c-0.3,0.1-0.7,0.2-1.2,0.3c-0.5,0.1-1,0.1-1.6,0.1c-0.7,0-1.2-0.1-1.7-0.3c-0.5-0.2-0.8-0.4-1.1-0.8s-0.5-0.7-0.6-1.1
		C74.3,23.7,74.3,23.2,74.3,22.7 M79,19.2c-0.6,0-1,0.2-1.5,0.6c-0.4,0.4-0.7,0.9-0.8,1.6c0.7,0,1.2-0.1,1.6-0.2
		c0.4-0.1,0.7-0.2,1-0.3c0.2-0.1,0.4-0.3,0.5-0.4c0.1-0.2,0.1-0.3,0.1-0.5C79.9,19.5,79.6,19.2,79,19.2"/>
	<path style="clip-path:url(#SVGID_2_);fill:#5A6D81;" d="M16.2,22.7l6.3,4.2c-0.9-10.3-7.4-15.4-9.6-16.9v7.3
		C13.9,18.1,15.7,19.8,16.2,22.7"/>
	<path style="clip-path:url(#SVGID_2_);fill:#5A6D81;" d="M1.9,26.7l6.4-4.1c0.3-1.3,1-3.4,3.3-5.2V10C3.1,16.4,2,24.2,1.9,26.7"/>
	<path style="clip-path:url(#SVGID_2_);fill:#5A6D81;" d="M8.6,24.1l-5.9,3.8c9.4,4,16.8,1.2,19.1,0.1l-5.9-3.9
		C14.9,24.6,12.1,25.5,8.6,24.1"/>
</symbol>
<symbol viewBox="0 0 40 40" id="leveld">
	<g>
	<defs>
		<rect id="SVGID_11_" x="7.5" y="5.5" width="25" height="32"/>
	</defs>
	<clipPath id="SVGID_2_">
		<use xlink:href="#SVGID_11_"  style="overflow:visible;"/>
	</clipPath>
	<g style="clip-path:url(#SVGID_2_);">
		<defs>
			<rect id="SVGID_13_" x="7.5" y="5.5" width="25" height="32"/>
		</defs>
		<clipPath id="SVGID_4_">
			<use xlink:href="#SVGID_13_"  style="overflow:visible;"/>
		</clipPath>
		<g style="opacity:0.4;clip-path:url(#SVGID_4_);">
			<g>
				<defs>
					<rect id="SVGID_15_" x="7.5" y="12.5" width="25" height="25"/>
				</defs>
				<clipPath id="SVGID_6_">
					<use xlink:href="#SVGID_15_"  style="overflow:visible;"/>
				</clipPath>
				<polygon style="clip-path:url(#SVGID_6_);fill:#132F4B;" points="20,12.5 7.5,18.7 7.5,31.2 20,37.5 32.5,31.2 32.5,18.7 				
					"/>
			</g>
		</g>
		<g style="opacity:0.7;clip-path:url(#SVGID_4_);">
			<g>
				<defs>
					<rect id="SVGID_17_" x="7.5" y="10.5" width="25" height="25"/>
				</defs>
				<clipPath id="SVGID_8_">
					<use xlink:href="#SVGID_17_"  style="overflow:visible;"/>
				</clipPath>
				<polygon style="clip-path:url(#SVGID_8_);fill:#132F4B;" points="20,10.5 7.5,16.7 7.5,29.2 20,35.5 32.5,29.2 32.5,16.7 				
					"/>
			</g>
		</g>
		<g style="opacity:0.5528;clip-path:url(#SVGID_4_);enable-background:new    ;">
			<g>
				<defs>
					<rect id="SVGID_19_" x="7.5" y="5.5" width="25" height="25"/>
				</defs>
				<clipPath id="SVGID_10_">
					<use xlink:href="#SVGID_19_"  style="overflow:visible;"/>
				</clipPath>
				<polygon style="clip-path:url(#SVGID_10_);fill:#132F4B;" points="20,5.5 7.5,11.7 7.5,24.2 20,30.5 32.5,24.2 32.5,11.7 				
					"/>
			</g>
		</g>
		<g style="opacity:0.5528;clip-path:url(#SVGID_4_);enable-background:new    ;">
			<g>
				<defs>
					<rect id="SVGID_21_" x="7.5" y="11.6" width="25" height="18.9"/>
				</defs>
				<clipPath id="SVGID_12_">
					<use xlink:href="#SVGID_21_"  style="overflow:visible;"/>
				</clipPath>
				<polygon style="clip-path:url(#SVGID_12_);fill:#132F4B;" points="20,17.5 7.5,11.6 7.5,24.2 20,30.5 32.5,24.2 32.5,11.6 				
					"/>
			</g>
		</g>
	</g>
</g>

</symbol>
</svg>

